<svg id="Capa_1" enable-background="new 0 0 512 512" height="512" viewBox="0 0 512 512" width="512" xmlns="http://www.w3.org/2000/svg"><g><path d="m42.531 211.481c4.15 0 7.515-3.365 7.515-7.515v-92.174c0-11.76 9.567-21.328 21.328-21.328h369.252c11.76 0 21.328 9.567 21.328 21.328v56.104c0 4.15 3.364 7.515 7.515 7.515s7.515-3.365 7.515-7.515v-56.104c0-20.048-16.31-36.357-36.357-36.357h-369.253c-20.048 0-36.357 16.31-36.357 36.357v92.174c0 4.151 3.364 7.515 7.514 7.515z"/><path d="m504.485 377.663h-27.502v-179.708c0-4.15-3.365-7.515-7.515-7.515s-7.515 3.365-7.515 7.515v179.708h-18.676v-46.619c0-4.15-3.365-7.515-7.515-7.515s-7.515 3.365-7.515 7.515v46.619h-126.11c-4.15 0-7.515 3.365-7.515 7.515v5.781c0 1.443-1.174 2.617-2.617 2.617h-92.141c-1.443 0-2.617-1.174-2.617-2.617v-5.781c0-4.15-3.365-7.515-7.515-7.515h-105.981v-253.493h344.497v176.815c0 4.15 3.365 7.515 7.515 7.515s7.515-3.365 7.515-7.515v-184.33c0-4.15-3.365-7.515-7.515-7.515h-359.526c-4.15 0-7.515 3.364-7.515 7.515v261.008h-18.676v-143.638c0-4.15-3.365-7.515-7.515-7.515s-7.515 3.365-7.515 7.515v143.638h-27.501c-4.15 0-7.515 3.365-7.515 7.515v22.855c0 15.733 12.799 28.532 28.532 28.532h454.935c15.733 0 28.532-12.8 28.532-28.532v-22.855c.001-4.151-3.364-7.515-7.514-7.515zm-7.514 30.37c0 7.446-6.057 13.503-13.503 13.503h-454.936c-7.446 0-13.503-6.057-13.503-13.503v-15.34h167.275c.874 8.919 8.416 15.912 17.562 15.912h92.141c9.145 0 16.688-6.993 17.562-15.912h187.402z"/><path d="m208.739 318.037c-2.069 3.588-.837 8.175 2.751 10.244 13.478 7.771 28.869 11.877 44.509 11.877 49.202 0 89.231-40.029 89.231-89.231s-40.029-89.232-89.231-89.232-89.231 40.029-89.231 89.232c0 20.366 7.042 40.285 19.829 56.089 2.605 3.22 7.328 3.718 10.548 1.113s3.719-7.328 1.113-10.548c-10.788-13.333-16.49-29.466-16.49-46.654 0-40.931 33.3-74.232 74.231-74.232s74.231 33.3 74.231 74.232c0 40.931-33.3 74.231-74.231 74.231-13.014 0-25.815-3.414-37.017-9.873-3.587-2.067-8.173-.837-10.243 2.752z"/><path d="m238.93 294.522c1.571 0 3.133-.493 4.446-1.46l49.051-36.096c1.92-1.413 3.055-3.656 3.055-6.04 0-2.385-1.134-4.628-3.055-6.041l-49.051-36.096c-2.278-1.676-5.305-1.929-7.83-.652-2.524 1.276-4.115 3.864-4.115 6.693v72.191c0 2.829 1.591 5.417 4.115 6.693 1.07.541 2.229.808 3.384.808zm7.501-64.86 28.897 21.265-28.897 21.265z"/></g></svg>