<?xml version="1.0"?>
<svg xmlns="http://www.w3.org/2000/svg" viewBox="0 0 512 512" width="512" height="512"><g id="outline"><path d="M388,128H276a27.912,27.912,0,0,0-20,8.431A27.912,27.912,0,0,0,236,128H124a28.032,28.032,0,0,0-28,28v19.518a23.965,23.965,0,0,0-26.508-11.137l-32.313,8.078a23.872,23.872,0,0,0-17.608,28.49l3.094,13.924A392.666,392.666,0,0,1,32,299.909V324a28.032,28.032,0,0,0,28,28h1.754l-5.515,22.06A8,8,0,0,0,64,384H88a8,8,0,0,0,6.4-3.2L116,352H412l21.6,28.8A8,8,0,0,0,440,384h24a8,8,0,0,0,7.761-9.94l-6.369-25.477A28.022,28.022,0,0,0,480,324V299.909a392.666,392.666,0,0,1,9.335-85.036l3.094-13.924a23.87,23.87,0,0,0-17.608-28.49l-32.313-8.078A23.965,23.965,0,0,0,416,175.518V156A28.032,28.032,0,0,0,388,128ZM264,156a12.013,12.013,0,0,1,12-12H388a12.013,12.013,0,0,1,12,12v70.707A27.838,27.838,0,0,0,388,224H276a27.838,27.838,0,0,0-12,2.707Zm0,96a12.013,12.013,0,0,1,12-12H388a12.013,12.013,0,0,1,12,12v20H264ZM112,156a12.013,12.013,0,0,1,12-12H236a12.013,12.013,0,0,1,12,12v70.707A27.838,27.838,0,0,0,236,224H124a27.838,27.838,0,0,0-12,2.707Zm0,96a12.013,12.013,0,0,1,12-12H236a12.013,12.013,0,0,1,12,12v20H112ZM84,368H74.246l4-16H96Zm360,0-12-16h17.754l4,16ZM420.162,233.833l8.654-47.6a8,8,0,0,1,9.811-6.329l32.313,8.078a7.956,7.956,0,0,1,5.87,9.5L473.716,211.4A408.674,408.674,0,0,0,464,299.909V324a12.013,12.013,0,0,1-12,12H60a12.013,12.013,0,0,1-12-12V299.909A408.674,408.674,0,0,0,38.284,211.4L35.19,197.479a7.959,7.959,0,0,1,5.87-9.5s33.625-8.322,34.277-8.322a8.014,8.014,0,0,1,7.847,6.574l8.654,47.6A258.616,258.616,0,0,1,96,280a8,8,0,0,0,8,8H408a8,8,0,0,0,8-8v-.015A258.575,258.575,0,0,1,420.162,233.833Z"/><path d="M152,192h8a8,8,0,0,0,0-16h-8a8,8,0,0,0,0,16Z"/><path d="M200,192h8a8,8,0,0,0,0-16h-8a8,8,0,0,0,0,16Z"/><path d="M304,192h8a8,8,0,0,0,0-16h-8a8,8,0,0,0,0,16Z"/><path d="M352,192h8a8,8,0,0,0,0-16h-8a8,8,0,0,0,0,16Z"/></g></svg>
